<svg data-v-423bf9ae="" xmlns="http://www.w3.org/2000/svg" viewBox="0 0 422.10743801652893 60" class="font"><!----><!----><!----><g data-v-423bf9ae="" id="c68be61a-7a4c-407d-aedb-150928d6ca02" fill="black" transform="matrix(6.347107410430908,0,0,6.347107410430908,0.2727353870868683,0.0743802934885025)" style="--darkreader-inline-fill:#000000;" data-darkreader-inline-fill=""><path d="M4.02 0.41C3.98 0.18 3.75 0 3.53 0L3.22 0C3.00 0 2.77 0.18 2.73 0.41L2.00 4.66L1.36 0.42C1.32 0.18 1.09 0 0.85 0L0.45 0C0.13 0-0.08 0.27-0.04 0.57L1.33 9.02C1.37 9.24 1.58 9.44 1.82 9.44L2.13 9.44C2.35 9.44 2.58 9.25 2.62 9.03L3.37 4.56L4.12 9.03C4.16 9.25 4.38 9.44 4.61 9.44L4.93 9.44C5.17 9.44 5.39 9.24 5.43 9.02L6.78 0.57C6.82 0.27 6.58 0 6.27 0L5.87 0C5.63 0 5.39 0.18 5.36 0.42L4.73 4.63ZM11.66 9.04C11.72 9.25 11.94 9.44 12.15 9.44L12.56 9.44C12.89 9.44 13.12 9.14 13.05 8.82L11.12 0.39C11.07 0.18 10.84 0 10.63 0L10.32 0C10.11 0 9.88 0.18 9.83 0.39L8.55 5.87L7.88 8.83C7.81 9.16 8.04 9.44 8.37 9.44L8.78 9.44C8.99 9.44 9.21 9.25 9.27 9.04L9.76 6.86L11.19 6.86ZM10.47 3.23C10.74 4.42 10.71 4.80 10.86 5.47L10.08 5.47ZM12.60 0.88C12.60 1.16 12.82 1.39 13.10 1.39L14.24 1.39L14.24 8.92C14.24 9.20 14.46 9.42 14.74 9.42L15.12 9.42C15.40 9.42 15.62 9.20 15.62 8.92L15.62 1.39L16.77 1.39C17.05 1.39 17.28 1.16 17.28 0.88L17.28 0.49C17.28 0.21 17.05-0.01 16.77-0.01L13.10-0.01C12.82-0.01 12.60 0.21 12.60 0.49ZM17.58 6.69C17.58 7.80 17.89 8.44 18.33 8.88C18.79 9.32 19.36 9.44 19.89 9.44C20.40 9.44 20.99 9.32 21.45 8.88C21.88 8.44 22.18 7.80 22.18 6.69L22.18 6.50C22.18 6.22 21.95 5.99 21.69 5.99L21.28 5.99C21 5.99 20.78 6.22 20.78 6.50L20.78 6.69C20.78 7.20 20.71 7.57 20.54 7.80C20.41 7.94 20.16 8.05 19.89 8.05C19.29 8.05 19.00 7.63 19.00 6.69L19.00 2.73C19.00 1.79 19.31 1.39 19.89 1.39C20.47 1.39 20.78 1.79 20.78 2.73L20.78 2.93C20.78 3.21 21 3.43 21.28 3.43L21.69 3.43C21.95 3.43 22.18 3.21 22.18 2.93L22.18 2.73C22.18 1.67 21.88 0.97 21.43 0.55C20.97 0.13 20.41 0 19.89 0C19.36 0 18.80 0.13 18.34 0.55C17.89 0.97 17.58 1.67 17.58 2.73ZM24.53 4.03L24.53 0.50C24.53 0.22 24.30 0 24.02 0L23.63 0C23.35 0 23.13 0.22 23.13 0.50L23.13 8.93C23.13 9.21 23.35 9.44 23.63 9.44L24.02 9.44C24.30 9.44 24.53 9.21 24.53 8.93L24.53 5.42L26.08 5.42L26.08 8.93C26.08 9.21 26.31 9.44 26.59 9.44L26.98 9.44C27.26 9.44 27.48 9.21 27.48 8.93L27.48 0.50C27.48 0.22 27.26 0 26.98 0L26.59 0C26.31 0 26.08 0.22 26.08 0.50L26.08 4.03ZM31.58 6.69C31.58 7.80 31.89 8.44 32.33 8.88C32.79 9.32 33.38 9.44 33.88 9.44C34.40 9.44 34.99 9.32 35.45 8.88C35.88 8.44 36.18 7.80 36.18 6.69L36.18 2.73C36.18 0.95 35.42 0 33.88 0C32.35 0 31.58 0.97 31.58 2.73ZM32.98 2.73C32.98 1.82 33.26 1.39 33.88 1.39C34.48 1.39 34.78 1.79 34.78 2.73L34.78 6.69C34.78 7.64 34.47 8.05 33.88 8.05C33.28 8.05 32.98 7.62 32.98 6.69ZM41.40 9.44C41.68 9.44 41.90 9.21 41.90 8.93L41.90 0.50C41.90 0.22 41.68 0 41.40 0L41.01 0C40.73 0 40.50 0.22 40.50 0.50L40.50 5.12L38.56 0.31C38.50 0.15 38.28 0 38.09 0L37.76 0C37.49 0 37.25 0.22 37.25 0.50L37.25 8.93C37.25 9.21 37.49 9.44 37.76 9.44L38.16 9.44C38.43 9.44 38.67 9.21 38.67 8.93L38.67 4.31L40.61 9.13C40.67 9.28 40.91 9.44 41.08 9.44ZM49.84 8.55C49.84 8.27 49.62 8.05 49.34 8.05L47.25 8.05L47.25 0.50C47.25 0.22 47.03 0 46.76 0L46.35 0C46.07 0 45.85 0.22 45.85 0.50L45.85 8.93C45.85 9.21 46.07 9.44 46.35 9.44L49.34 9.44C49.62 9.44 49.84 9.21 49.84 8.93ZM52.61 9.44C54.25 9.44 54.98 8.54 54.98 6.73C54.98 5.88 54.74 5.17 54.38 4.72L54.38 4.72C54.38 4.72 54.98 4.00 54.98 2.70C54.98 0.90 54.25 0 52.61 0L51.23 0C50.95 0 50.72 0.22 50.72 0.50L50.72 8.93C50.72 9.21 50.95 9.44 51.23 9.44ZM52.61 1.39C53.30 1.39 53.58 1.76 53.58 2.70C53.58 3.64 53.30 4.02 52.61 4.02L52.12 4.02L52.12 1.39ZM52.61 5.40C53.30 5.40 53.58 5.78 53.58 6.73C53.58 7.67 53.30 8.05 52.61 8.05L52.12 8.05L52.12 5.40ZM60.55 6.58C60.55 5.85 60.35 5.28 59.95 4.84C59.99 4.80 60.02 4.77 60.06 4.73C60.49 4.30 60.65 3.60 60.65 2.73C60.65 0.85 60.05-0.01 58.32-0.01L56.56-0.01C56.28-0.01 56.06 0.21 56.06 0.49L56.06 8.92C56.06 9.20 56.28 9.42 56.56 9.42L56.95 9.42C57.22 9.42 57.44 9.20 57.44 8.92L57.44 5.49L58.07 5.49C58.76 5.49 59.15 5.88 59.15 6.58L59.15 8.92C59.15 9.20 59.37 9.42 59.65 9.42L60.05 9.42C60.33 9.42 60.55 9.20 60.55 8.92ZM57.44 1.39L58.32 1.39C59.05 1.39 59.26 1.78 59.26 2.73C59.26 3.68 58.86 4.07 58.07 4.07L57.44 4.07ZM62.78 0.29C62.72 0.15 62.48 0 62.31 0L61.87 0C61.47 0 61.25 0.35 61.40 0.70C62.01 2.10 62.62 3.49 63.22 4.89L63.22 8.93C63.22 9.21 63.45 9.44 63.71 9.44L64.11 9.44C64.39 9.44 64.61 9.21 64.61 8.93L64.61 4.90L66.42 0.70C66.56 0.35 66.33 0 65.95 0L65.49 0C65.34 0 65.10 0.15 65.03 0.29L63.91 2.87Z"></path></g><!----><!----></svg>