<svg width="525" height="136" viewBox="0 0 525 136" fill="none" xmlns="http://www.w3.org/2000/svg">
<path d="M69.23 19.13L84.46 101.34H72.25L64.3 55.76L42.24 102.8L20.29 55.76L12.34 101.34H0.130005L15.36 19.13L42.24 75.69L69.23 19.13Z" fill="white"/>
<path d="M119.13 42.2C123.23 42.2 127.08 42.98 130.7 44.55C134.32 46.12 137.48 48.25 140.2 50.93C142.92 53.62 145.06 56.79 146.63 60.45C148.19 64.11 148.98 67.99 148.98 72.1V101.11H137.44V95.68C134.9 97.6 132.1 99.12 129.04 100.23C125.98 101.34 122.69 101.89 119.18 101.89C115.07 101.89 111.21 101.11 107.59 99.54C103.97 97.97 100.81 95.84 98.13 93.16C95.44 90.47 93.31 87.32 91.75 83.7C90.18 80.08 89.4 76.22 89.4 72.11C89.4 68 90.18 64.12 91.75 60.46C93.31 56.8 95.44 53.63 98.12 50.94C100.8 48.25 103.95 46.12 107.57 44.56C111.17 42.98 115.03 42.2 119.13 42.2ZM119.18 90.36C121.72 90.36 124.09 89.87 126.29 88.9C128.49 87.92 130.41 86.61 132.06 84.96C133.7 83.31 135.01 81.37 135.98 79.16C136.95 76.94 137.44 74.6 137.44 72.12C137.44 69.57 136.95 67.18 135.98 64.97C135.01 62.75 133.7 60.82 132.06 59.17C130.42 57.52 128.49 56.2 126.29 55.23C124.09 54.25 121.72 53.77 119.18 53.77C116.64 53.77 114.27 54.26 112.07 55.23C109.87 56.21 107.94 57.52 106.3 59.17C104.66 60.82 103.35 62.76 102.38 64.97C101.41 67.19 100.92 69.57 100.92 72.12C100.92 74.6 101.4 76.95 102.38 79.16C103.35 81.37 104.66 83.31 106.3 84.96C107.94 86.61 109.86 87.93 112.07 88.9C114.27 89.87 116.64 90.36 119.18 90.36Z" fill="white"/>
<path d="M214.72 71.77C214.72 75.88 213.95 79.72 212.42 83.31C210.89 86.89 208.78 90.03 206.09 92.72C203.4 95.41 200.27 97.52 196.68 99.05C193.1 100.58 189.25 101.35 185.14 101.35C181.03 101.35 177.19 100.59 173.6 99.05C170.02 97.52 166.88 95.41 164.19 92.72C161.5 90.03 159.39 86.9 157.86 83.31C156.33 79.73 155.56 75.88 155.56 71.77C155.56 67.66 156.32 63.82 157.86 60.23C159.39 56.65 161.5 53.51 164.19 50.82C166.88 48.13 170.01 46.02 173.6 44.49C177.18 42.96 181.03 42.19 185.14 42.19C188.57 42.19 191.8 42.73 194.83 43.81C197.85 44.89 200.64 46.41 203.17 48.35V2.64999H214.71V71.64V71.77H214.72ZM185.21 89.8C187.67 89.8 189.99 89.33 192.19 88.4C194.39 87.47 196.3 86.18 197.94 84.54C199.58 82.9 200.86 80.98 201.79 78.77C202.72 76.57 203.19 74.23 203.19 71.77V71.66C203.19 69.2 202.72 66.88 201.79 64.72C200.86 62.56 199.58 60.65 197.94 59.01C196.3 57.37 194.39 56.08 192.19 55.15C189.99 54.22 187.67 53.75 185.21 53.75C182.75 53.75 180.43 54.22 178.23 55.15C176.03 56.08 174.12 57.37 172.48 59.01C170.84 60.65 169.54 62.58 168.57 64.78C167.6 66.98 167.12 69.32 167.12 71.78C167.12 74.24 167.6 76.58 168.57 78.78C169.54 80.98 170.84 82.91 172.48 84.55C174.12 86.19 176.03 87.48 178.23 88.41C180.42 89.33 182.75 89.8 185.21 89.8Z" fill="white"/>
<path d="M223 36.04V24.5H234.54V36.04H223ZM234.54 42.09V101.23H223V42.09H234.54Z" fill="white"/>
<path d="M270.88 42.2C274.98 42.2 278.83 42.98 282.45 44.55C286.07 46.12 289.23 48.25 291.95 50.93C294.67 53.61 296.81 56.79 298.38 60.45C299.94 64.11 300.73 67.99 300.73 72.1V101.11H289.2V95.68C286.66 97.6 283.86 99.12 280.8 100.23C277.74 101.34 274.45 101.89 270.94 101.89C266.83 101.89 262.97 101.11 259.35 99.54C255.73 97.97 252.57 95.84 249.89 93.16C247.2 90.47 245.07 87.32 243.51 83.7C241.94 80.08 241.16 76.22 241.16 72.11C241.16 68 241.94 64.12 243.51 60.46C245.07 56.8 247.2 53.63 249.88 50.94C252.56 48.25 255.71 46.12 259.33 44.56C262.93 42.98 266.79 42.2 270.88 42.2ZM270.94 90.36C273.48 90.36 275.85 89.87 278.05 88.9C280.25 87.92 282.17 86.61 283.82 84.96C285.46 83.31 286.77 81.37 287.74 79.16C288.71 76.94 289.2 74.6 289.2 72.12C289.2 69.57 288.71 67.18 287.74 64.97C286.77 62.75 285.46 60.82 283.82 59.17C282.18 57.52 280.25 56.2 278.05 55.23C275.85 54.25 273.48 53.77 270.94 53.77C268.4 53.77 266.03 54.26 263.83 55.23C261.63 56.21 259.7 57.52 258.06 59.17C256.42 60.82 255.11 62.76 254.14 64.97C253.17 67.19 252.68 69.57 252.68 72.12C252.68 74.6 253.16 76.95 254.14 79.16C255.11 81.37 256.42 83.31 258.06 84.96C259.7 86.61 261.62 87.93 263.83 88.9C266.03 89.87 268.4 90.36 270.94 90.36Z" fill="white"/>
<path d="M340.49 37.27H329.74V101.33H318.2V37.27H307.34V25.73H318.2V3.78H329.74V25.73H340.49V37.27Z" fill="white"/>
<path d="M376.55 42.09C380.66 42.09 384.5 42.86 388.09 44.39C391.67 45.92 394.81 48.03 397.5 50.72C400.19 53.41 402.3 56.54 403.83 60.13C405.36 63.71 406.13 67.56 406.13 71.67C406.13 75.78 405.36 79.62 403.83 83.21C402.3 86.79 400.19 89.93 397.5 92.62C394.81 95.31 391.68 97.42 388.09 98.95C384.51 100.48 380.66 101.25 376.55 101.25C372.44 101.25 368.6 100.49 365.01 98.95C361.43 97.42 358.29 95.31 355.6 92.62C352.91 89.93 350.8 86.8 349.27 83.21C347.74 79.63 346.97 75.78 346.97 71.67C346.97 67.56 347.73 63.72 349.27 60.13C350.8 56.55 352.91 53.41 355.6 50.72C358.29 48.03 361.42 45.92 365.01 44.39C368.6 42.85 372.45 42.09 376.55 42.09ZM376.61 89.69C379.07 89.69 381.39 89.22 383.59 88.29C385.79 87.36 387.7 86.07 389.34 84.43C390.98 82.79 392.26 80.86 393.19 78.66C394.12 76.46 394.59 74.12 394.59 71.66C394.59 69.2 394.12 66.86 393.19 64.66C392.26 62.46 390.98 60.54 389.34 58.89C387.7 57.25 385.79 55.96 383.59 55.03C381.39 54.1 379.07 53.63 376.61 53.63C374.15 53.63 371.83 54.1 369.63 55.03C367.43 55.96 365.52 57.25 363.88 58.89C362.24 60.53 360.94 62.46 359.97 64.66C359 66.86 358.52 69.2 358.52 71.66C358.52 74.12 359 76.46 359.97 78.66C360.94 80.86 362.24 82.79 363.88 84.43C365.52 86.07 367.43 87.36 369.63 88.29C371.83 89.22 374.15 89.69 376.61 89.69Z" fill="white"/>
<path d="M452.38 46.5C454.92 48.16 457.08 50.23 458.88 52.72L452.38 57.88L449.92 59.9C448.65 58.03 446.99 56.54 444.94 55.42C442.89 54.3 440.66 53.74 438.28 53.74C436.34 53.74 434.51 54.11 432.79 54.86C431.07 55.61 429.58 56.62 428.31 57.88C427.04 59.15 426.03 60.64 425.29 62.36C424.54 64.08 424.17 65.91 424.17 67.85V89.13V101.11H412.63V67.78V42.2H424.17V46.5C426.19 45.14 428.39 44.09 430.78 43.33C433.17 42.58 435.67 42.2 438.28 42.2C440.89 42.2 443.39 42.58 445.78 43.33C448.16 44.08 450.36 45.14 452.38 46.5Z" fill="white"/>
<path d="M348.69 23.33C349.43 23.33 350.07 23.59 350.59 24.12C351.11 24.64 351.38 25.28 351.38 26.02C351.38 26.76 351.12 27.4 350.59 27.92C350.07 28.44 349.43 28.71 348.69 28.71C347.95 28.71 347.31 28.45 346.79 27.92C346.27 27.4 346 26.76 346 26.02C346 25.28 346.26 24.64 346.79 24.12C347.31 23.59 347.94 23.33 348.69 23.33Z" fill="white"/>
<path d="M368.7 23.48C370.02 23.48 371.23 23.19 372.35 22.62C373.47 22.05 374.39 21.29 375.14 20.34L379.24 23.53C378.02 25.1 376.5 26.35 374.68 27.29C372.86 28.23 370.86 28.7 368.7 28.7C366.88 28.7 365.15 28.35 363.53 27.66C361.91 26.97 360.48 26.01 359.26 24.8C358.03 23.58 357.07 22.16 356.37 20.54C355.67 18.92 355.32 17.18 355.32 15.32C355.32 13.5 355.67 11.77 356.37 10.15C357.07 8.52999 358.03 7.11001 359.26 5.89001C360.49 4.67001 361.91 3.72 363.53 3.03C365.15 2.34 366.87 1.98999 368.7 1.98999C370.86 1.98999 372.86 2.45 374.68 3.37C376.5 4.29 378.02 5.55 379.24 7.16L375.14 10.35C374.4 9.37001 373.47 8.60001 372.35 8.04001C371.24 7.48001 370.02 7.20001 368.7 7.20001C367.59 7.20001 366.53 7.40999 365.53 7.82999C364.53 8.24999 363.66 8.83001 362.92 9.57001C362.18 10.31 361.59 11.17 361.17 12.16C360.75 13.15 360.54 14.2 360.54 15.31C360.54 16.42 360.75 17.47 361.17 18.46C361.59 19.45 362.17 20.32 362.92 21.05C363.66 21.79 364.53 22.38 365.53 22.81C366.53 23.26 367.59 23.48 368.7 23.48Z" fill="white"/>
<path d="M396.52 1.94C398.38 1.94 400.12 2.29001 401.74 2.98001C403.36 3.67001 404.78 4.63 406 5.84C407.22 7.06 408.17 8.48001 408.86 10.1C409.55 11.72 409.9 13.46 409.9 15.32C409.9 17.18 409.55 18.92 408.86 20.54C408.17 22.16 407.21 23.58 406 24.8C404.78 26.02 403.37 26.97 401.74 27.66C400.12 28.35 398.38 28.7 396.52 28.7C394.66 28.7 392.92 28.35 391.3 27.66C389.68 26.97 388.26 26.01 387.04 24.8C385.82 23.59 384.87 22.16 384.18 20.54C383.49 18.92 383.14 17.18 383.14 15.32C383.14 13.46 383.49 11.72 384.18 10.1C384.87 8.48001 385.83 7.06 387.04 5.84C388.25 4.62 389.67 3.67001 391.3 2.98001C392.92 2.29001 394.66 1.94 396.52 1.94ZM396.55 23.48C397.66 23.48 398.71 23.27 399.71 22.85C400.7 22.43 401.57 21.85 402.31 21.1C403.05 20.36 403.63 19.49 404.05 18.49C404.47 17.49 404.68 16.44 404.68 15.32C404.68 14.2 404.47 13.15 404.05 12.15C403.63 11.15 403.05 10.28 402.31 9.54001C401.57 8.80001 400.7 8.21001 399.71 7.79001C398.72 7.37001 397.66 7.16 396.55 7.16C395.44 7.16 394.39 7.37001 393.39 7.79001C392.4 8.21001 391.53 8.80001 390.79 9.54001C390.05 10.28 389.46 11.15 389.02 12.15C388.58 13.15 388.36 14.2 388.36 15.32C388.36 16.44 388.58 17.49 389.02 18.49C389.46 19.49 390.05 20.36 390.79 21.1C391.53 21.84 392.4 22.43 393.39 22.85C394.38 23.27 395.44 23.48 396.55 23.48Z" fill="white"/>
<path d="M450.14 3.76999C451.73 4.81999 452.99 6.18999 453.94 7.89999C454.89 9.60999 455.36 11.47 455.36 13.5V28.75H450.14V23.28V13.5C450.14 12.62 449.97 11.79 449.63 11.02C449.29 10.24 448.83 9.56 448.24 8.97C447.65 8.38 446.96 7.90999 446.19 7.57999C445.41 7.23999 444.59 7.07001 443.71 7.07001C442.83 7.07001 441.99 7.23999 441.2 7.57999C440.41 7.91999 439.71 8.38 439.12 8.97C438.53 9.56 438.06 10.25 437.73 11.02C437.39 11.8 437.22 12.62 437.22 13.5V23.28V28.75H432V23.28V13.5C432 12.62 431.83 11.79 431.49 11.02C431.15 10.24 430.69 9.56 430.1 8.97C429.51 8.38 428.82 7.90999 428.05 7.57999C427.27 7.23999 426.44 7.07001 425.57 7.07001C424.69 7.07001 423.86 7.23999 423.06 7.57999C422.27 7.91999 421.57 8.38 420.98 8.97C420.39 9.56 419.92 10.25 419.59 11.02C419.25 11.8 419.08 12.62 419.08 13.5V23.28V28.75H413.86V13.5V1.84H419.08V3.76999C420.03 3.15999 421.05 2.69001 422.15 2.35001C423.25 2.01001 424.39 1.84 425.57 1.84C426.75 1.84 427.89 2.01001 428.99 2.35001C430.09 2.69001 431.09 3.15999 432 3.76999C432.98 4.40999 433.86 5.22001 434.63 6.20001C435.37 5.25001 436.23 4.43999 437.21 3.76999C438.16 3.15999 439.18 2.69001 440.28 2.35001C441.38 2.01001 442.52 1.84 443.7 1.84C444.88 1.84 446.02 2.01001 447.12 2.35001C448.22 2.69001 449.22 3.15999 450.14 3.76999Z" fill="white"/>
<path d="M17.89 119.39C17.91 119.51 17.93 119.63 17.94 119.75C17.95 119.87 17.95 120 17.95 120.14V120.17V120.2C17.95 120.34 17.95 120.47 17.94 120.59C17.93 120.71 17.91 120.83 17.89 120.95V120.98L17.8 121.7C17.78 121.72 17.77 121.76 17.77 121.82C17.75 121.92 17.73 122.01 17.71 122.09C17.69 122.17 17.66 122.26 17.62 122.36C17.34 123.28 16.92 124.1 16.37 124.82C15.82 125.54 15.15 126.15 14.37 126.65C13.71 127.05 12.98 127.36 12.18 127.59C11.38 127.82 10.53 127.93 9.63 127.93H5.7V134.44H2.5V112.4H9.64C11.44 112.4 13.02 112.83 14.38 113.69C15.16 114.19 15.82 114.8 16.38 115.52C16.93 116.24 17.34 117.05 17.63 117.95C17.71 118.17 17.76 118.36 17.78 118.52C17.78 118.58 17.79 118.62 17.81 118.64C17.83 118.76 17.84 118.88 17.85 119C17.86 119.12 17.87 119.23 17.89 119.33V119.39ZM10.03 125.12C10.69 125.12 11.29 124.98 11.84 124.7C12.39 124.42 12.87 124.05 13.28 123.59C13.69 123.13 14.01 122.61 14.24 122.01C14.47 121.42 14.58 120.81 14.58 120.17C14.58 119.53 14.46 118.92 14.24 118.33C14.01 117.74 13.69 117.21 13.28 116.75C12.87 116.29 12.39 115.92 11.84 115.64C11.29 115.36 10.69 115.22 10.03 115.22H5.74V125.12H10.03Z" fill="white"/>
<path d="M35.56 118.85C35.56 119.79 35.41 120.59 35.12 121.24C34.83 121.89 34.4 122.57 33.85 123.26L27.19 131.75H35.41V134.42H21.49L28.39 125.3C29.01 124.5 29.57 123.77 30.07 123.11C30.27 122.83 30.47 122.55 30.68 122.28C30.89 122.01 31.07 121.76 31.24 121.53C31.4 121.3 31.53 121.11 31.64 120.97C31.75 120.83 31.81 120.74 31.84 120.7C32.18 120.12 32.35 119.5 32.35 118.84C32.35 118.32 32.25 117.83 32.05 117.37C31.85 116.91 31.57 116.51 31.22 116.17C30.87 115.83 30.46 115.56 30 115.36C29.54 115.16 29.05 115.06 28.52 115.06C27.99 115.06 27.51 115.16 27.04 115.36C26.58 115.56 26.18 115.83 25.84 116.17C25.5 116.51 25.23 116.91 25.03 117.37C24.83 117.83 24.73 118.32 24.73 118.84H21.64C21.64 117.96 21.82 117.13 22.2 116.34C22.57 115.55 23.07 114.86 23.7 114.27C24.33 113.68 25.06 113.22 25.9 112.87C26.74 112.53 27.64 112.36 28.6 112.36C29.56 112.36 30.46 112.53 31.3 112.87C32.14 113.21 32.87 113.68 33.5 114.27C34.13 114.86 34.63 115.55 35 116.34C35.37 117.13 35.56 117.97 35.56 118.85Z" fill="white"/>
<path d="M54.49 119.39C54.51 119.51 54.53 119.63 54.54 119.75C54.55 119.87 54.55 120 54.55 120.14V120.17V120.2C54.55 120.34 54.55 120.47 54.54 120.59C54.53 120.71 54.51 120.83 54.49 120.95V120.98L54.4 121.7C54.38 121.72 54.37 121.76 54.37 121.82C54.35 121.92 54.33 122.01 54.31 122.09C54.29 122.17 54.26 122.26 54.22 122.36C53.94 123.28 53.52 124.1 52.97 124.82C52.42 125.54 51.75 126.15 50.97 126.65C50.31 127.05 49.58 127.36 48.78 127.59C47.98 127.82 47.13 127.93 46.23 127.93H42.3V134.44H39.1V112.4H46.24C48.04 112.4 49.62 112.83 50.98 113.69C51.76 114.19 52.42 114.8 52.98 115.52C53.53 116.24 53.94 117.05 54.23 117.95C54.31 118.17 54.36 118.36 54.38 118.52C54.38 118.58 54.39 118.62 54.41 118.64C54.43 118.76 54.44 118.88 54.45 119C54.46 119.12 54.47 119.23 54.49 119.33V119.39V119.39ZM46.63 125.12C47.29 125.12 47.89 124.98 48.44 124.7C48.99 124.42 49.47 124.05 49.88 123.59C50.29 123.13 50.61 122.61 50.84 122.01C51.07 121.42 51.18 120.81 51.18 120.17C51.18 119.53 51.06 118.92 50.84 118.33C50.61 117.74 50.29 117.21 49.88 116.75C49.47 116.29 48.99 115.92 48.44 115.64C47.89 115.36 47.29 115.22 46.63 115.22H42.34V125.12H46.63Z" fill="white"/>
<path d="M87.28 119.39C87.3 119.51 87.32 119.63 87.33 119.75C87.34 119.87 87.34 120 87.34 120.14V120.17V120.2C87.34 120.34 87.34 120.47 87.33 120.59C87.32 120.71 87.3 120.83 87.28 120.95V120.98L87.19 121.7C87.17 121.72 87.16 121.76 87.16 121.82C87.14 121.92 87.12 122.01 87.1 122.09C87.08 122.17 87.05 122.26 87.01 122.36C86.73 123.28 86.31 124.1 85.76 124.82C85.21 125.54 84.54 126.15 83.76 126.65C83.1 127.05 82.37 127.36 81.57 127.59C80.77 127.82 79.92 127.93 79.02 127.93H75.09V134.44H71.88V112.4H79.02C80.82 112.4 82.4 112.83 83.76 113.69C84.54 114.19 85.2 114.8 85.76 115.52C86.31 116.24 86.72 117.05 87.01 117.95C87.09 118.17 87.14 118.36 87.16 118.52C87.16 118.58 87.17 118.62 87.19 118.64C87.21 118.76 87.22 118.88 87.23 119C87.24 119.12 87.25 119.23 87.27 119.33V119.39H87.28ZM79.42 125.12C80.08 125.12 80.68 124.98 81.23 124.7C81.78 124.42 82.26 124.05 82.67 123.59C83.08 123.13 83.4 122.61 83.63 122.01C83.86 121.42 83.97 120.81 83.97 120.17C83.97 119.53 83.85 118.92 83.63 118.33C83.4 117.74 83.08 117.21 82.67 116.75C82.26 116.29 81.78 115.92 81.23 115.64C80.68 115.36 80.08 115.22 79.42 115.22H75.13V125.12H79.42Z" fill="white"/>
<path d="M98.8 118.58C99.9 118.58 100.93 118.79 101.89 119.2C102.85 119.61 103.69 120.17 104.41 120.89C105.13 121.61 105.7 122.45 106.11 123.41C106.52 124.37 106.72 125.4 106.72 126.5C106.72 127.6 106.51 128.63 106.11 129.59C105.7 130.55 105.13 131.39 104.41 132.11C103.69 132.83 102.85 133.4 101.89 133.8C100.93 134.21 99.9 134.42 98.8 134.42C97.7 134.42 96.67 134.21 95.71 133.8C94.75 133.39 93.91 132.83 93.19 132.11C92.47 131.39 91.9 130.55 91.49 129.59C91.08 128.63 90.88 127.6 90.88 126.5C90.88 125.4 91.08 124.37 91.49 123.41C91.9 122.45 92.47 121.61 93.19 120.89C93.91 120.17 94.75 119.61 95.71 119.2C96.67 118.79 97.7 118.58 98.8 118.58ZM98.81 131.33C99.47 131.33 100.09 131.21 100.68 130.95C101.27 130.69 101.78 130.36 102.22 129.91C102.66 129.47 103 128.95 103.25 128.37C103.5 127.78 103.62 127.16 103.62 126.49C103.62 125.82 103.5 125.2 103.25 124.61C103 124.02 102.66 123.51 102.22 123.07C101.78 122.63 101.27 122.28 100.68 122.03C100.09 121.78 99.47 121.65 98.81 121.65C98.15 121.65 97.53 121.77 96.94 122.03C96.35 122.28 95.84 122.63 95.4 123.07C94.96 123.51 94.61 124.03 94.35 124.61C94.09 125.19 93.96 125.82 93.96 126.49C93.96 127.16 94.09 127.78 94.35 128.37C94.61 128.96 94.96 129.48 95.4 129.91C95.84 130.35 96.35 130.7 96.94 130.95C97.53 131.21 98.15 131.33 98.81 131.33Z" fill="white"/>
<path d="M131.2 118.55L125.92 130.64L124.24 134.51L122.53 130.64L120.73 126.53L118.93 130.64L117.25 134.51L115.57 130.64L110.26 118.55H113.65L117.25 126.77L119.05 122.66L120.73 118.79L122.44 122.66L124.24 126.77L127.84 118.55H131.2Z" fill="white"/>
<path d="M143.95 127.55H137.92C138.04 128.09 138.25 128.6 138.54 129.06C138.83 129.53 139.19 129.94 139.6 130.28C140.01 130.62 140.49 130.88 141.01 131.07C141.53 131.26 142.08 131.36 142.66 131.36C143.36 131.36 144.01 131.22 144.62 130.94C145.23 130.66 145.77 130.27 146.22 129.77H146.79H149.85C149.73 130.07 149.58 130.35 149.41 130.63C149.24 130.9 149.05 131.17 148.85 131.42C148.13 132.34 147.23 133.08 146.15 133.63C145.07 134.18 143.9 134.46 142.64 134.46C141.54 134.46 140.51 134.25 139.55 133.84C138.59 133.43 137.75 132.87 137.03 132.14C136.31 131.42 135.74 130.58 135.33 129.62C134.92 128.66 134.72 127.63 134.72 126.53C134.72 125.43 134.92 124.4 135.33 123.44C135.74 122.48 136.31 121.64 137.03 120.92C137.75 120.2 138.59 119.63 139.55 119.22C140.51 118.81 141.54 118.61 142.64 118.61C143.9 118.61 145.07 118.88 146.15 119.43C147.23 119.98 148.13 120.73 148.85 121.67C149.51 122.47 149.99 123.41 150.29 124.49C150.47 125.13 150.56 125.81 150.56 126.53C150.56 126.89 150.53 127.23 150.47 127.55H147.35H143.95V127.55ZM142.66 121.7C141.68 121.7 140.8 121.95 140.04 122.46C139.27 122.96 138.69 123.63 138.29 124.46H145.28H147.05C146.95 124.3 146.86 124.14 146.76 123.99C146.67 123.83 146.57 123.68 146.48 123.54C146.02 122.97 145.46 122.52 144.8 122.19C144.14 121.86 143.42 121.7 142.66 121.7Z" fill="white"/>
<path d="M164.77 119.76C165.45 120.2 166.03 120.76 166.51 121.43L164.77 122.81L164.11 123.35C163.77 122.85 163.32 122.45 162.78 122.15C162.23 121.85 161.63 121.7 161 121.7C160.48 121.7 159.99 121.8 159.53 122C159.07 122.2 158.67 122.47 158.33 122.81C157.99 123.15 157.72 123.55 157.52 124.01C157.32 124.47 157.22 124.96 157.22 125.48V131.18V134.39H154.13V125.46V118.61H157.22V119.76C157.76 119.4 158.35 119.11 158.99 118.91C159.63 118.71 160.3 118.61 161 118.61C161.7 118.61 162.37 118.71 163.01 118.91C163.63 119.12 164.23 119.4 164.77 119.76Z" fill="white"/>
<path d="M177.55 127.55H171.52C171.64 128.09 171.85 128.6 172.14 129.06C172.43 129.53 172.79 129.94 173.2 130.28C173.61 130.62 174.09 130.88 174.61 131.07C175.13 131.26 175.68 131.36 176.26 131.36C176.96 131.36 177.61 131.22 178.22 130.94C178.83 130.66 179.37 130.27 179.82 129.77H180.39H183.45C183.33 130.07 183.18 130.35 183.01 130.63C182.84 130.9 182.65 131.17 182.45 131.42C181.73 132.34 180.83 133.08 179.75 133.63C178.67 134.18 177.5 134.46 176.24 134.46C175.14 134.46 174.11 134.25 173.15 133.84C172.19 133.43 171.35 132.87 170.63 132.14C169.91 131.42 169.34 130.58 168.93 129.62C168.52 128.66 168.32 127.63 168.32 126.53C168.32 125.43 168.52 124.4 168.93 123.44C169.34 122.48 169.91 121.64 170.63 120.92C171.35 120.2 172.19 119.63 173.15 119.22C174.11 118.81 175.14 118.61 176.24 118.61C177.5 118.61 178.67 118.88 179.75 119.43C180.83 119.98 181.73 120.73 182.45 121.67C183.11 122.47 183.59 123.41 183.89 124.49C184.07 125.13 184.16 125.81 184.16 126.53C184.16 126.89 184.13 127.23 184.07 127.55H180.95H177.55V127.55ZM176.26 121.7C175.28 121.7 174.4 121.95 173.64 122.46C172.87 122.96 172.29 123.63 171.89 124.46H178.88H180.65C180.55 124.3 180.46 124.14 180.36 123.99C180.27 123.83 180.17 123.68 180.08 123.54C179.62 122.97 179.06 122.52 178.4 122.19C177.74 121.86 177.02 121.7 176.26 121.7Z" fill="white"/>
<path d="M203.55 126.53C203.55 127.63 203.34 128.66 202.94 129.62C202.53 130.58 201.96 131.42 201.24 132.14C200.52 132.86 199.68 133.43 198.72 133.84C197.76 134.25 196.73 134.46 195.63 134.46C194.53 134.46 193.5 134.25 192.54 133.84C191.58 133.43 190.74 132.87 190.02 132.14C189.3 131.42 188.73 130.58 188.32 129.62C187.91 128.66 187.71 127.63 187.71 126.53C187.71 125.43 187.91 124.4 188.32 123.44C188.73 122.48 189.3 121.64 190.02 120.92C190.74 120.2 191.58 119.63 192.54 119.22C193.5 118.81 194.53 118.61 195.63 118.61C196.55 118.61 197.42 118.75 198.22 119.04C199.03 119.33 199.78 119.74 200.46 120.25V108.01H203.55V126.49V126.53ZM195.65 131.36C196.31 131.36 196.93 131.24 197.52 130.98C198.11 130.72 198.62 130.38 199.06 129.94C199.5 129.5 199.84 128.98 200.09 128.4C200.34 127.81 200.46 127.18 200.46 126.52V126.49C200.46 125.83 200.34 125.21 200.09 124.63C199.84 124.05 199.5 123.54 199.06 123.1C198.62 122.66 198.11 122.31 197.52 122.06C196.93 121.81 196.31 121.68 195.65 121.68C194.99 121.68 194.37 121.8 193.78 122.06C193.19 122.31 192.68 122.65 192.24 123.1C191.8 123.54 191.45 124.06 191.19 124.64C190.93 125.22 190.8 125.85 190.8 126.52C190.8 127.18 190.93 127.81 191.19 128.4C191.45 128.99 191.8 129.5 192.24 129.94C192.68 130.38 193.19 130.73 193.78 130.98C194.37 131.24 194.99 131.36 195.65 131.36Z" fill="white"/>
<path d="M224.1 131.3H233.07V134.45H220.89V112.43H224.1V131.3Z" fill="white"/>
<path d="M248.67 122.78C249.55 123.26 250.25 123.95 250.78 124.86C251.31 125.77 251.57 126.81 251.57 127.96C251.57 128.84 251.4 129.67 251.06 130.45C250.72 131.23 250.26 131.91 249.68 132.5C249.1 133.09 248.42 133.56 247.64 133.9C246.86 134.24 246.03 134.41 245.15 134.41H236.6V112.42H245C245.8 112.42 246.56 112.58 247.28 112.88C248 113.19 248.63 113.62 249.17 114.16C249.71 114.7 250.13 115.33 250.44 116.05C250.75 116.77 250.91 117.54 250.91 118.36C250.91 118.86 250.84 119.32 250.71 119.75C250.58 120.18 250.41 120.58 250.2 120.94C249.99 121.3 249.75 121.64 249.48 121.94C249.23 122.27 248.95 122.54 248.67 122.78ZM239.82 121.52H244.47C244.91 121.52 245.32 121.44 245.7 121.28C246.08 121.12 246.41 120.9 246.69 120.6C246.97 120.31 247.19 119.98 247.35 119.6C247.51 119.22 247.59 118.82 247.59 118.4C247.59 117.5 247.29 116.75 246.69 116.15C246.09 115.55 245.35 115.25 244.47 115.25H239.82V121.52V121.52ZM244.62 131.6C245.12 131.6 245.59 131.5 246.03 131.3C246.47 131.1 246.86 130.84 247.18 130.51C247.51 130.18 247.77 129.8 247.96 129.35C248.15 128.91 248.24 128.45 248.24 127.97C248.24 127.47 248.15 127 247.96 126.56C247.77 126.12 247.51 125.74 247.18 125.41C246.85 125.08 246.46 124.82 246.03 124.63C245.59 124.44 245.12 124.34 244.62 124.34H239.82V131.6H244.62V131.6Z" fill="white"/>
<path d="M270.24 122.39C269.96 123.29 269.54 124.1 268.99 124.82C268.44 125.54 267.76 126.15 266.96 126.65C266.92 126.69 266.87 126.72 266.81 126.74C266.75 126.76 266.7 126.79 266.66 126.83L270.53 134.45H267.14L263.75 127.82C263.51 127.86 263.27 127.89 263.03 127.91C262.79 127.93 262.53 127.94 262.25 127.94H258.32V134.45H255.11V112.4H262.25C263.15 112.4 263.99 112.52 264.78 112.74C265.57 112.96 266.29 113.28 266.95 113.68C268.57 114.7 269.66 116.13 270.22 117.97C270.24 118.07 270.26 118.16 270.28 118.24C270.3 118.32 270.33 118.41 270.37 118.51V118.66C270.41 118.76 270.44 118.87 270.45 118.99C270.46 119.11 270.48 119.23 270.49 119.35V119.38C270.51 119.5 270.52 119.62 270.52 119.74C270.52 119.86 270.52 119.99 270.52 120.13V120.16V120.22C270.52 120.34 270.52 120.46 270.52 120.58C270.52 120.7 270.51 120.82 270.49 120.94V121C270.47 121.12 270.45 121.24 270.45 121.34C270.44 121.45 270.41 121.57 270.37 121.69V121.81C270.31 122.04 270.26 122.23 270.24 122.39ZM262.65 125.12C263.31 125.12 263.91 124.98 264.46 124.7C265.01 124.42 265.49 124.05 265.89 123.59C266.29 123.13 266.61 122.6 266.85 122.01C267.09 121.42 267.21 120.8 267.21 120.16C267.21 119.54 267.09 118.93 266.85 118.32C266.61 117.72 266.29 117.19 265.89 116.74C265.49 116.29 265.01 115.92 264.46 115.64C263.91 115.36 263.31 115.22 262.65 115.22H258.36V125.12H262.65V125.12Z" fill="white"/>
<path d="M290.91 112.4V112.43L284.1 127.25V134.45V134.48H280.89V134.45V127.25L274.08 112.43H274.11L274.08 112.4H277.65L282.51 124.16L287.37 112.4H290.91Z" fill="white"/>
<path d="M308.25 112.43H311.46V134.42H308.25V112.43Z" fill="white"/>
<path d="M325.75 119.63C326.7 120.27 327.45 121.1 328.01 122.1C328.56 123.11 328.84 124.22 328.84 125.42V134.45H325.75V131.18V125.42C325.75 124.9 325.65 124.41 325.45 123.93C325.25 123.46 324.97 123.05 324.62 122.7C324.27 122.35 323.86 122.08 323.4 121.87C322.94 121.67 322.45 121.57 321.92 121.57C321.39 121.57 320.9 121.67 320.43 121.87C319.96 122.07 319.55 122.35 319.21 122.7C318.87 123.05 318.6 123.46 318.4 123.93C318.2 124.4 318.1 124.9 318.1 125.42V131.18V134.45H315V125.42V118.49H318.09L318.11 119.63C318.65 119.27 319.25 118.99 319.9 118.79C320.55 118.59 321.23 118.49 321.93 118.49C322.63 118.49 323.31 118.59 323.96 118.79C324.61 118.99 325.2 119.27 325.75 119.63Z" fill="white"/>
<path d="M341.13 127.1C341.41 127.5 341.63 127.94 341.79 128.41C341.95 128.88 342.02 129.37 342 129.89C341.98 130.55 341.83 131.16 341.55 131.72C341.27 132.28 340.9 132.77 340.44 133.19C339.98 133.61 339.44 133.94 338.82 134.17C338.2 134.4 337.55 134.5 336.87 134.48C335.91 134.44 335.04 134.19 334.28 133.73C333.51 133.27 332.92 132.66 332.53 131.9L335.11 130.1C335.21 130.46 335.43 130.77 335.77 131.02C336.11 131.27 336.51 131.4 336.97 131.4C337.49 131.42 337.95 131.28 338.34 130.97C338.73 130.66 338.92 130.27 338.92 129.81C338.92 129.67 338.91 129.57 338.89 129.51V129.45C338.87 129.41 338.86 129.38 338.86 129.35C338.86 129.32 338.85 129.29 338.83 129.24C338.69 128.9 338.43 128.62 338.05 128.4C337.99 128.36 337.9 128.32 337.78 128.28L337.81 128.25C337.53 128.09 337.22 127.93 336.88 127.79C336.54 127.64 336.19 127.48 335.84 127.31C335.49 127.14 335.14 126.96 334.8 126.77C334.46 126.58 334.14 126.35 333.84 126.1V126.07L333.75 125.98C333.33 125.58 333 125.11 332.76 124.58C332.52 124.05 332.41 123.49 332.43 122.89C332.45 122.29 332.59 121.73 332.85 121.21C333.11 120.69 333.45 120.24 333.89 119.86C334.32 119.48 334.82 119.18 335.4 118.96C335.98 118.74 336.6 118.64 337.26 118.66C338.12 118.7 338.89 118.91 339.58 119.29C340.27 119.67 340.82 120.18 341.22 120.82L338.7 122.56C338.58 122.34 338.39 122.15 338.12 121.99C337.85 121.83 337.54 121.75 337.2 121.75C336.74 121.73 336.35 121.84 336.02 122.08C335.69 122.32 335.52 122.61 335.52 122.95C335.52 123.05 335.53 123.12 335.55 123.16C335.59 123.38 335.69 123.57 335.85 123.73C336.01 123.89 336.21 124.02 336.45 124.12C336.83 124.34 337.26 124.57 337.75 124.8C338.24 125.03 338.74 125.28 339.24 125.56C339.6 125.72 339.96 125.95 340.32 126.25L340.47 126.4C340.67 126.56 340.89 126.8 341.13 127.1Z" fill="white"/>
<path d="M354.45 117.29H351.57V134.45H348.48V117.29H345.57V114.2H348.48V108.32H351.57V114.2H354.45V117.29Z" fill="white"/>
<path d="M365.54 118.61C366.64 118.61 367.67 118.82 368.64 119.24C369.61 119.66 370.46 120.23 371.19 120.95C371.92 121.67 372.49 122.52 372.91 123.5C373.33 124.48 373.54 125.52 373.54 126.62V134.39H370.45V132.94C369.77 133.46 369.02 133.86 368.2 134.16C367.38 134.46 366.5 134.61 365.56 134.61C364.46 134.61 363.43 134.4 362.46 133.98C361.49 133.56 360.64 132.99 359.92 132.27C359.2 131.55 358.63 130.71 358.21 129.73C357.79 128.76 357.58 127.73 357.58 126.63C357.58 125.53 357.79 124.49 358.21 123.51C358.63 122.53 359.2 121.68 359.92 120.96C360.64 120.24 361.48 119.67 362.45 119.25C363.41 118.82 364.44 118.61 365.54 118.61ZM365.55 131.51C366.23 131.51 366.87 131.38 367.46 131.12C368.05 130.86 368.56 130.51 369 130.06C369.44 129.62 369.79 129.1 370.05 128.51C370.31 127.92 370.44 127.29 370.44 126.62C370.44 125.94 370.31 125.3 370.05 124.7C369.79 124.11 369.44 123.59 369 123.14C368.56 122.7 368.04 122.35 367.46 122.08C366.87 121.82 366.23 121.69 365.55 121.69C364.87 121.69 364.23 121.82 363.65 122.08C363.06 122.34 362.54 122.69 362.11 123.14C361.67 123.58 361.32 124.1 361.06 124.7C360.8 125.29 360.67 125.93 360.67 126.62C360.67 127.28 360.8 127.91 361.06 128.51C361.32 129.1 361.67 129.62 362.11 130.06C362.55 130.5 363.06 130.86 363.65 131.12C364.24 131.38 364.87 131.51 365.55 131.51Z" fill="white"/>
<path d="M387.84 119.63C388.79 120.27 389.54 121.1 390.1 122.1C390.65 123.11 390.93 124.22 390.93 125.42V134.45H387.84V131.18V125.42C387.84 124.9 387.74 124.41 387.54 123.93C387.34 123.46 387.06 123.05 386.71 122.7C386.36 122.35 385.95 122.08 385.49 121.87C385.03 121.67 384.54 121.57 384.01 121.57C383.48 121.57 382.99 121.67 382.52 121.87C382.05 122.07 381.64 122.35 381.3 122.7C380.96 123.05 380.69 123.46 380.49 123.93C380.29 124.4 380.19 124.9 380.19 125.42V131.18V134.45H377.1V125.42V118.49H380.19L380.21 119.63C380.75 119.27 381.35 118.99 382 118.79C382.65 118.59 383.33 118.49 384.03 118.49C384.73 118.49 385.41 118.59 386.06 118.79C386.71 118.99 387.3 119.27 387.84 119.63Z" fill="white"/>
<path d="M402.42 131.33C403.2 131.33 403.92 131.16 404.58 130.82C405.24 130.48 405.79 130.03 406.23 129.47L408.66 131.36C407.94 132.29 407.04 133.03 405.96 133.59C404.88 134.15 403.7 134.42 402.42 134.42C401.34 134.42 400.32 134.21 399.36 133.8C398.4 133.39 397.56 132.83 396.83 132.11C396.1 131.39 395.53 130.55 395.12 129.59C394.71 128.63 394.5 127.6 394.5 126.5C394.5 125.42 394.71 124.4 395.12 123.44C395.53 122.48 396.1 121.64 396.83 120.92C397.56 120.2 398.4 119.63 399.36 119.22C400.32 118.81 401.34 118.61 402.42 118.61C403.7 118.61 404.88 118.88 405.96 119.43C407.04 119.98 407.94 120.72 408.66 121.67L406.23 123.56C405.79 122.98 405.24 122.53 404.58 122.2C403.92 121.87 403.2 121.7 402.42 121.7C401.76 121.7 401.13 121.82 400.54 122.07C399.95 122.32 399.43 122.66 399 123.1C398.56 123.54 398.21 124.05 397.96 124.64C397.71 125.23 397.58 125.85 397.58 126.5C397.58 127.15 397.7 127.78 397.96 128.36C398.21 128.95 398.55 129.46 399 129.9C399.44 130.34 399.96 130.69 400.54 130.94C401.12 131.19 401.76 131.33 402.42 131.33Z" fill="white"/>
<path d="M421.38 127.55H415.35C415.47 128.09 415.68 128.6 415.97 129.06C416.26 129.53 416.61 129.94 417.04 130.28C417.46 130.62 417.93 130.88 418.45 131.07C418.97 131.26 419.52 131.36 420.1 131.36C420.8 131.36 421.45 131.22 422.06 130.94C422.67 130.66 423.2 130.27 423.67 129.77H424.24H427.3C427.18 130.07 427.03 130.35 426.86 130.63C426.69 130.9 426.5 131.17 426.31 131.42C425.59 132.34 424.69 133.08 423.61 133.63C422.53 134.18 421.36 134.46 420.1 134.46C419 134.46 417.97 134.25 417.01 133.84C416.05 133.43 415.21 132.87 414.49 132.14C413.77 131.42 413.2 130.58 412.8 129.62C412.39 128.66 412.18 127.63 412.18 126.53C412.18 125.43 412.39 124.4 412.8 123.44C413.21 122.48 413.77 121.64 414.49 120.92C415.21 120.2 416.05 119.63 417.01 119.22C417.97 118.81 419 118.61 420.1 118.61C421.36 118.61 422.53 118.88 423.61 119.43C424.69 119.98 425.59 120.73 426.31 121.67C426.97 122.47 427.45 123.41 427.75 124.49C427.93 125.13 428.02 125.81 428.02 126.53C428.02 126.89 427.99 127.23 427.93 127.55H424.81H421.38V127.55ZM420.09 121.7C419.11 121.7 418.23 121.95 417.47 122.46C416.7 122.96 416.11 123.63 415.72 124.46H422.71H424.48C424.38 124.3 424.28 124.14 424.19 123.99C424.1 123.84 424.01 123.68 423.9 123.54C423.44 122.97 422.88 122.52 422.22 122.19C421.56 121.86 420.85 121.7 420.09 121.7Z" fill="white"/>
<path d="M479.01 135.92C476.25 135.92 474.01 133.68 474.01 130.92C474.01 129.91 474.01 127.21 514.54 4.35002C515.41 1.73002 518.24 0.300023 520.85 1.17002C523.47 2.03002 524.9 4.86002 524.03 7.48002C508.55 54.39 485.23 125.78 483.97 131.52C483.68 134 481.57 135.92 479.01 135.92Z" fill="white"/>
<path d="M455.35 135.92C452.59 135.92 450.35 133.68 450.35 130.92C450.35 129.91 450.35 127.21 490.88 4.35002C491.75 1.73002 494.57 0.300023 497.19 1.17002C499.81 2.04002 501.24 4.86002 500.37 7.48002C484.9 54.39 461.58 125.78 460.31 131.52C460.02 134 457.91 135.92 455.35 135.92Z" fill="white"/>
</svg>
